# xmcd
#
# Track frame offsets:
#	150
#	16914
#	43768
#	64074
#	88679
#	117680
#	140862
#	194631
#
# Disc length: 4440 seconds
#
# Revision: 1
# Processed by: cddbd v1.5.2PL0 Copyright (c) Steve Scherf et al.
# Submitted via: audiograbber 1.83.01
#
DISCID=7a115608
DTITLE=Dzem - Zemsta nietoperzy
DYEAR=1986
DGENRE=Blues
TTITLE0=Boze daj dom
TTITLE1=Uwierz Mirando
TTITLE2=Usmiech smierci
TTITLE3=Naiwne pytania
TTITLE4=Koszmarna noc
TTITLE5=Magazyn mod
TTITLE6=Klosz
TTITLE7=Data Track
EXTD=
EXTT0=
EXTT1=
EXTT2=
EXTT3=
EXTT4=
EXTT5=
EXTT6=
EXTT7=
PLAYORDER=
